<svg xmlns="http://www.w3.org/2000/svg" width="75" height="76" fill="none" viewBox="0 0 75 76"><path stroke="#fff" stroke-width="5" d="M68.779 73.1176L2.5 6.83862V73.1176H68.779Z"/><mask id="mask0_956_11030" width="75" height="76" x="0" y="0" maskUnits="userSpaceOnUse" style="mask-type:alpha"><path fill="#fff" d="M0.0078125 75.6175C0.0078133 65.7927 1.94295 56.0641 5.70273 46.9872C9.46251 37.9103 14.9733 29.6628 21.9204 22.7157C28.8676 15.7685 37.1151 10.2577 46.192 6.49789C55.2689 2.73811 64.9976 0.802978 74.8223 0.802979L74.8223 75.6175H0.0078125Z"/></mask><g mask="url(#mask0_956_11030)"><path stroke="#fff" stroke-width="10" d="M0.0078125 75.6175C0.0078133 65.7927 1.94295 56.0641 5.70273 46.9872C9.46251 37.9103 14.9733 29.6628 21.9204 22.7157C28.8676 15.7685 37.1151 10.2577 46.192 6.49789C55.2689 2.73811 64.9976 0.802978 74.8223 0.802979L74.8223 75.6175H0.0078125Z"/></g></svg>